<svg width="1001" height="1000" viewBox="0 0 1001 1000" fill="none" xmlns="http://www.w3.org/2000/svg">
<path d="M448.257 75.1445C201.088 75.1445 0 282.524 0 537.43C0 792.493 201.088 1000 448.257 1000C695.617 1000 896.861 792.493 896.861 537.43C896.861 282.524 695.617 75.1445 448.257 75.1445ZM220.775 707.291C272.746 690.977 326.031 682.705 379.143 682.705C469.346 682.705 558.397 706.278 636.71 750.902C641.367 753.518 645.602 762.173 647.501 772.946C649.401 783.717 648.645 794.794 645.596 800.556C641.747 807.949 633.937 812.727 625.694 812.727C621.61 812.727 618.02 811.781 614.429 809.78C542.539 769.032 461.181 747.49 379.143 747.49C329.58 747.49 280.923 755.056 234.566 769.957C232.308 770.663 229.985 771.024 227.662 771.024C217.511 771.027 208.701 764.359 205.746 754.465C201.755 740.937 210.01 710.921 220.775 707.291ZM201.22 536.975C259.146 520.737 319.009 512.501 379.146 512.501C487.254 512.501 594.607 539.477 689.668 590.55C696.332 594.037 701.242 599.95 703.492 607.197C705.774 614.538 705.086 622.432 701.525 629.476C693.041 646.596 683.126 658.101 676.845 658.101C672.393 658.101 668.097 657 663.818 654.795C575.547 607.394 479.771 583.36 379.143 583.36C323.17 583.36 268.256 590.95 215.976 605.905C213.544 606.585 211.048 606.927 208.563 606.927C195.986 606.93 184.903 598.17 181.622 585.662C177.42 569.393 187.02 540.956 201.22 536.975ZM196.213 425.698C193.557 426.374 190.843 426.714 188.144 426.714C172.944 426.717 159.774 416.125 156.116 400.979C151.531 381.805 163.164 359.533 180.01 355.157C245.528 338.562 312.525 330.147 379.143 330.147C508.103 330.147 631.608 360.046 746.271 419.03C754.234 423.081 760.171 430.074 762.993 438.719C765.816 447.373 765.193 456.688 761.253 464.918C755.883 476.001 744.28 487.933 731.492 487.933C726.56 487.933 721.497 486.742 717.012 484.57C611.686 430.228 498.011 402.674 379.146 402.674C318.059 402.677 256.514 410.421 196.213 425.698Z" fill="white"/>
<g filter="url(#filter0_d_5_17)">
<ellipse cx="792.601" cy="173.41" rx="168.161" ry="173.41" fill="#FF0000"/>
<path d="M738.856 137.935C745.248 137.935 751.107 138.882 756.434 140.776C761.82 142.61 766.673 145.037 770.994 148.055C775.373 151.015 779.22 154.152 782.535 157.466C784.666 159.419 786.619 161.431 788.394 163.503C790.229 165.574 791.945 167.587 793.543 169.54C794.964 167.587 796.473 165.663 798.071 163.769C799.669 161.875 801.711 159.774 804.197 157.466C809.168 152.494 815.294 147.996 822.574 143.972C829.913 139.947 838.465 137.935 848.231 137.935C857.227 137.935 865.395 140.125 872.734 144.504C880.132 148.825 885.991 154.684 890.312 162.082C894.692 169.421 896.881 177.589 896.881 186.585C896.881 193.392 895.609 199.784 893.064 205.761C890.578 211.68 887.116 216.888 882.677 221.386C878.238 225.825 873.059 229.317 867.141 231.862C861.281 234.348 854.978 235.591 848.231 235.591C841.72 235.591 835.743 234.674 830.298 232.839C824.912 230.945 820.029 228.548 815.649 225.648C811.329 222.688 807.511 219.611 804.197 216.415C802.066 214.284 800.113 212.183 798.337 210.112C796.562 207.981 794.964 205.939 793.543 203.986C791.945 205.939 790.229 207.981 788.394 210.112C786.619 212.183 784.666 214.284 782.535 216.415C779.22 219.611 775.373 222.688 770.994 225.648C766.673 228.548 761.82 230.945 756.434 232.839C751.107 234.674 745.248 235.591 738.856 235.591C729.741 235.591 721.485 233.401 714.087 229.021C706.688 224.642 700.8 218.753 696.42 211.354C692.04 203.956 689.85 195.7 689.85 186.585C689.85 179.838 691.093 173.535 693.579 167.675C696.124 161.757 699.616 156.578 704.055 152.139C708.553 147.7 713.761 144.238 719.68 141.752C725.657 139.207 732.05 137.935 738.856 137.935ZM710.092 186.585C710.092 191.912 711.364 196.765 713.909 201.145C716.513 205.465 719.976 208.928 724.296 211.532C728.676 214.077 733.529 215.349 738.856 215.349C744.715 215.349 750.072 214.018 754.925 211.354C759.778 208.691 764.247 205.406 768.33 201.5C770.994 198.837 773.331 196.262 775.344 193.776C777.356 191.29 779.161 188.893 780.759 186.585C779.161 184.455 777.386 182.176 775.433 179.749C773.539 177.263 771.171 174.689 768.33 172.026C764.424 168.119 759.985 164.835 755.014 162.171C750.101 159.508 744.715 158.176 738.856 158.176C733.529 158.176 728.676 159.478 724.296 162.082C719.976 164.627 716.513 168.06 713.909 172.381C711.364 176.642 710.092 181.377 710.092 186.585ZM876.64 186.585C876.64 181.377 875.338 176.642 872.734 172.381C870.189 168.06 866.756 164.627 862.435 162.082C858.174 159.478 853.439 158.176 848.231 158.176C844.206 158.176 840.418 158.798 836.867 160.04C833.316 161.224 830.002 162.881 826.924 165.012C823.846 167.084 821.006 169.421 818.401 172.026C815.205 175.044 812.542 177.974 810.411 180.815C808.34 183.596 806.86 185.52 805.972 186.585C807.57 188.893 809.376 191.29 811.388 193.776C813.4 196.262 815.738 198.837 818.401 201.5C822.485 205.406 826.954 208.691 831.807 211.354C836.719 214.018 842.194 215.349 848.231 215.349C853.439 215.349 858.174 214.077 862.435 211.532C866.756 208.928 870.189 205.465 872.734 201.145C875.338 196.765 876.64 191.912 876.64 186.585Z" fill="white"/>
</g>
<defs>
<filter id="filter0_d_5_17" x="612.439" y="0" width="348.323" height="354.821" filterUnits="userSpaceOnUse" color-interpolation-filters="sRGB">
<feFlood flood-opacity="0" result="BackgroundImageFix"/>
<feColorMatrix in="SourceAlpha" type="matrix" values="0 0 0 0 0 0 0 0 0 0 0 0 0 0 0 0 0 0 127 0" result="hardAlpha"/>
<feOffset dx="-8" dy="4"/>
<feGaussianBlur stdDeviation="2"/>
<feComposite in2="hardAlpha" operator="out"/>
<feColorMatrix type="matrix" values="0 0 0 0 0 0 0 0 0 0 0 0 0 0 0 0 0 0 0.25 0"/>
<feBlend mode="normal" in2="BackgroundImageFix" result="effect1_dropShadow_5_17"/>
<feBlend mode="normal" in="SourceGraphic" in2="effect1_dropShadow_5_17" result="shape"/>
</filter>
</defs>
</svg>
